<?xml version="1.0" encoding="utf-8"?>
<!-- Generator: Adobe Illustrator 22.0.1, SVG Export Plug-In . SVG Version: 6.00 Build 0)  -->
<svg version="1.1" id="Layer_1" xmlns="http://www.w3.org/2000/svg" xmlns:xlink="http://www.w3.org/1999/xlink" x="0px" y="0px"
	 viewBox="0 0 1080 1080" style="enable-background:new 0 0 1080 1080;" xml:space="preserve">
<style type="text/css">
	.st0{clip-path:url(#SVGID_2_);fill:#1CD093;}
	.st1{clip-path:url(#SVGID_2_);}
</style>
<g>
	<defs>
		<rect id="SVGID_1_" width="1080" height="1080"/>
	</defs>
	<clipPath id="SVGID_2_">
		<use xlink:href="#SVGID_1_"  style="overflow:visible;"/>
	</clipPath>
	<path class="st0" d="M380,298.5c12.5-12.3,28.8-18.4,45-18.2c16.2,0.1,32.5,6.5,44.8,18.9c15.3,15.5,34.4,25.1,54.3,28.6
		c5.5,1,11.1,1.5,16.8,1.5c5.6,0,11.2-0.4,16.8-1.3c20-3.2,39.2-12.4,54.7-27.7c12.5-12.3,28.8-18.4,45-18.2
		c16.2,0.1,32.5,6.5,44.8,18.9c24.6,25,24.3,65.2-0.7,89.8c-15.5,15.3-25.1,34.4-28.6,54.3c-1,5.5-1.5,11.1-1.5,16.8
		c0,5.6,0.4,11.2,1.3,16.8c3.2,20,12.4,39.2,27.7,54.7c24.6,25,24.3,65.2-0.7,89.8c-12.5,12.3-28.8,18.4-45,18.2
		c-15.7-0.1-31.4-6.1-43.6-17.8l0,0c-0.4-0.4-0.8-0.8-1.1-1.2c-0.4-0.4-0.8-0.8-1.2-1.2l0,0c-15.1-14.9-33.7-24-53.2-27.4
		c-5.5-1-11.1-1.5-16.7-1.5c-5.5,0-11.1,0.4-16.6,1.2c-20,3.1-39.2,12.3-54.7,27.5l-0.3,0.3c-12.5,12.1-28.6,18.1-44.8,18
		c-16.2-0.1-32.5-6.5-44.8-18.9c-12.3-12.5-18.4-28.8-18.2-45c0.1-16.1,6.4-32.2,18.7-44.5l0.3-0.3c12.5-12.3,28.8-18.4,45-18.2
		c14.5,0.1,29,5.2,40.6,15.1c1.2,1.4,2.5,2.8,3.8,4.1c1.3,1.3,2.7,2.6,4,3.9c14.6,13.3,32.3,21.6,50.6,24.7
		c5.4,0.9,10.9,1.4,16.4,1.5c5.6,0,11.2-0.4,16.8-1.3c20-3.2,39.2-12.4,54.7-27.7c15.5-15.3,25.1-34.4,28.6-54.3
		c2-11.1,2-22.4,0.3-33.5c-3.2-20-12.4-39.2-27.7-54.7c-15.3-15.5-34.4-25.1-54.3-28.6c-5.5-1-11.1-1.5-16.8-1.5s-11.2,0.4-16.8,1.3
		c-20,3.2-39.2,12.4-54.7,27.7c-12.5,12.3-28.8,18.4-45,18.2c-15.7-0.1-31.4-6.1-43.6-17.8l0,0c-0.4-0.4-0.8-0.8-1.1-1.2
		c-0.4-0.4-0.8-0.8-1.2-1.2l0,0c-11.5-12.3-17.2-28.1-17.1-43.8C361.2,327,367.5,310.8,380,298.5"/>
	<path class="st0" d="M495.3,415.6c12.5-12.3,28.8-18.4,45-18.2c16.2,0.1,32.5,6.5,44.8,18.9c24.6,25,24.3,65.2-0.7,89.8
		c-12.5,12.3-28.8,18.4-45,18.2c-14.5-0.1-29-5.2-40.6-15.1c0,0,0,0,0,0c0,0,0,0,0,0c-1.2-1.4-2.5-2.7-3.8-4.1
		c-1.3-1.3-2.6-2.6-4-3.9c0,0,0,0,0,0c0,0,0,0,0,0c-9.8-11.8-14.6-26.4-14.5-40.9C476.5,444.1,482.8,427.9,495.3,415.6"/>
	<polygon class="st1" points="179.6,703.8 200.4,703.8 213.7,763.5 215.3,772.8 215.6,772.8 217.1,763.5 228.6,703.8 249.3,703.8 
		261.6,763.2 263.3,772.8 263.5,772.8 265.2,763.2 278.8,703.8 298.6,703.8 272.3,797.4 253.5,797.4 240.2,731.6 239,723.7 
		238.8,723.7 237.6,731.6 224.3,797.4 206,797.4 	"/>
	<path class="st1" d="M305.9,727.9h17.5v12h0.3c2.1-4.5,4.7-8,7.7-10.3c3-2.3,6.8-3.5,11.3-3.5c1.2,0,2.4,0.1,3.5,0.3V745
		c-0.8-0.2-2.6-0.3-5.2-0.3c-5.7,0-9.9,1.4-12.7,4.1c-2.8,2.7-4.1,6.9-4.1,12.4v36.1h-18.3V727.9z"/>
	<rect x="357.3" y="703.8" class="st1" width="18.3" height="93.6"/>
	<path class="st1" d="M456.7,797.4h-17.9v-8.7h-0.3c-4.2,7-10.9,10.6-20.1,10.6c-9.2,0-16.3-3.4-21.5-10.3
		c-5.1-6.8-7.7-15.9-7.7-27.1c0-11,2.7-19.7,8.1-26.1c5.4-6.4,12.3-9.6,20.7-9.6c8.9,0,15.6,3.6,20.1,10.8h0.3v-33.2h18.3V797.4z
		 M408.1,763.2c0,6.1,1.3,11.1,4,15.1c2.7,3.9,6.3,5.9,11,5.9c5.1,0,9.1-1.8,11.9-5.4c2.8-3.6,4.2-8.5,4.2-14.5
		c0-7.4-1.3-12.9-3.9-16.7c-2.6-3.7-6.5-5.6-11.7-5.6c-4.9,0-8.7,1.9-11.4,5.6C409.5,751.3,408.1,756.5,408.1,763.2"/>
	<path class="st1" d="M510.2,703.8h41.3c12.6,0,22.2,4.1,28.5,12.3c6.4,8.2,9.6,19,9.6,32.3c0,14.7-3.4,26.5-10.2,35.5
		c-6.8,9-16.3,13.5-28.7,13.5h-40.6V703.8z M529.3,781.2h19c6.7,0,11.9-2.8,15.7-8.4c3.7-5.6,5.6-13.3,5.6-23.1
		c0-10.1-1.7-17.6-5.2-22.5c-3.4-4.9-8.7-7.4-15.7-7.4h-19.4V781.2z"/>
	<path class="st1" d="M604.9,703.8h41.3c12.7,0,22.2,4.1,28.5,12.3c6.4,8.2,9.6,19,9.6,32.3c0,14.7-3.4,26.5-10.2,35.5
		c-6.8,9-16.3,13.5-28.7,13.5h-40.6V703.8z M624,781.2h19c6.7,0,11.9-2.8,15.7-8.4c3.7-5.6,5.6-13.3,5.6-23.1
		c0-10.1-1.7-17.6-5.2-22.5c-3.4-4.9-8.7-7.4-15.7-7.4H624V781.2z"/>
	<path class="st1" d="M760.2,777c-2.1,7.2-5.9,12.7-11.4,16.5c-5.5,3.8-11.8,5.7-19.1,5.7c-11.4,0-20.1-3.2-26.2-9.5
		c-6-6.3-9-15-9-26.2c0-11.2,2.8-20.2,8.5-27.1c5.7-6.9,14.1-10.3,25.4-10.3c10.1,0,18.1,3.2,23.9,9.6c5.8,6.4,8.7,15.9,8.7,28.6
		v3.2h-48.2c0.4,5.6,2.1,9.9,5,12.7c2.9,2.8,6.8,4.2,11.8,4.2c3,0,5.5-0.7,7.7-2.1c2.2-1.4,3.6-3.2,4.2-5.4H760.2z M742.1,755.8
		c-0.4-4.4-1.8-8-4.3-10.6c-2.5-2.7-5.8-4-9.7-4c-8.7,0-13.6,4.9-14.8,14.6H742.1z"/>
	<polygon class="st1" points="807.3,797.4 788.1,797.4 763.2,727.9 783.5,727.9 797.9,779.1 798.1,779.1 812.9,727.9 832.3,727.9 	
		"/>
	<path class="st1" d="M880.1,749.2c-0.3-3-1.4-5.3-3.3-7c-1.9-1.7-4.8-2.5-8.9-2.5c-3.8,0-6.6,0.6-8.3,1.8c-1.8,1.2-2.7,2.8-2.7,4.6
		c0,1.8,0.8,3.2,2.3,4.2c1.5,1,7.3,2.7,17.4,5.1c10.3,2.4,16.9,5.2,19.7,8.4c2.8,3.2,4.2,7.2,4.2,12c0,7.7-2.7,13.6-8.1,17.6
		c-5.4,4.1-13.5,6.1-24.2,6.1c-9.5,0-16.9-2-22.3-5.9c-5.4-3.9-8.5-10-9.3-18.4h18.7c0,3.6,1.2,6.3,3.5,8.1
		c2.3,1.8,5.8,2.6,10.5,2.6c4,0,7-0.6,9.2-1.8c2.1-1.2,3.2-2.8,3.2-4.8c0-2-0.8-3.6-2.3-4.7s-6.8-2.6-15.8-4.6
		c-10-2.1-16.6-4.9-19.8-8.3c-3.2-3.4-4.9-7.5-4.9-12.3c0-6.9,2.5-12.5,7.4-16.9c4.9-4.4,12.2-6.6,21.8-6.6c9.4,0,16.6,2,21.7,5.9
		c5,3.9,7.8,9.6,8.3,17.2H880.1z"/>
</g>
</svg>
